<?xml version="1.0" encoding="UTF-8" standalone="no"?>
<!-- Created with Inkscape (http://www.inkscape.org/) -->

<svg
   width="200mm"
   height="200mm"
   viewBox="0 0 200 200"
   version="1.1"
   id="svg5"
   sodipodi:docname="CosmicLogoAdmin.svg"
   inkscape:version="1.1.2 (0a00cf5339, 2022-02-04)"
   inkscape:export-filename="/home/ahmed/Desktop/Graphical/CosmicLogo1.png"
   inkscape:export-xdpi="96"
   inkscape:export-ydpi="96"
   xmlns:inkscape="http://www.inkscape.org/namespaces/inkscape"
   xmlns:sodipodi="http://sodipodi.sourceforge.net/DTD/sodipodi-0.dtd"
   xmlns:xlink="http://www.w3.org/1999/xlink"
   xmlns="http://www.w3.org/2000/svg"
   xmlns:svg="http://www.w3.org/2000/svg">
  <sodipodi:namedview
     id="namedview7"
     pagecolor="#ffffff"
     bordercolor="#666666"
     borderopacity="1.0"
     inkscape:pageshadow="2"
     inkscape:pageopacity="0"
     inkscape:pagecheckerboard="false"
     inkscape:document-units="mm"
     showgrid="false"
     width="200mm"
     inkscape:zoom="1.0104048"
     inkscape:cx="354.31344"
     inkscape:cy="382.02511"
     inkscape:window-width="1920"
     inkscape:window-height="996"
     inkscape:window-x="0"
     inkscape:window-y="0"
     inkscape:window-maximized="1"
     inkscape:current-layer="layer1"
     showborder="true"
     borderlayer="false"
     inkscape:showpageshadow="false" />
  <defs
     id="defs2">
    <linearGradient
       id="linearGradient49077"
       inkscape:swatch="solid">
      <stop
         style="stop-color:#1a1a1a;stop-opacity:1;"
         offset="0"
         id="stop49075" />
    </linearGradient>
    <linearGradient
       inkscape:collect="always"
       id="linearGradient50976-7-8-3-8">
      <stop
         style="stop-color:#000000;stop-opacity:1;"
         offset="0"
         id="stop50972" />
      <stop
         style="stop-color:#000000;stop-opacity:0;"
         offset="1"
         id="stop50974" />
    </linearGradient>
    <radialGradient
       inkscape:collect="always"
       xlink:href="#linearGradient50976-7-8-3-8"
       id="radialGradient50978-51"
       cx="101.18034"
       cy="53.638882"
       fx="101.18034"
       fy="53.638882"
       r="1.8516209"
       gradientTransform="matrix(1.0715602,1.2554606e-6,-1.1130384e-6,0.95000001,-7.2404234,2.680094)"
       gradientUnits="userSpaceOnUse" />
    <filter
       inkscape:collect="always"
       style="color-interpolation-filters:sRGB"
       id="filter54036-3"
       x="-0.31749125"
       y="-0.33420131"
       width="1.6349825"
       height="1.6684026">
      <feGaussianBlur
         inkscape:collect="always"
         stdDeviation="0.28885286"
         id="feGaussianBlur54038-1" />
    </filter>
  </defs>
  <g
     inkscape:label="Layer 1"
     inkscape:groupmode="layer"
     id="layer1">
    <ellipse
       style="mix-blend-mode:normal;fill:#ffffff;fill-opacity:1;stroke:url(#radialGradient50978-51);stroke-width:0.965;stroke-miterlimit:4;stroke-dasharray:none;filter:url(#filter54036-3)"
       id="path50693-4"
       cx="101.0985"
       cy="53.604427"
       rx="1.8516209"
       ry="1.7590399"
       transform="matrix(0.89733848,0,0,0.89733848,-8.2008264,32.36205)" />
    <path
       id="path64992"
       style="fill:#89cff0;stroke:#000000;stroke-width:0.548015;stroke-opacity:0;fill-opacity:1"
       d="m 93.514351,87.071954 c -0.699685,-1.750186 -9.718385,-5.019216 -20.865835,8.79788 -4.05125,5.021466 -3.641755,-1.14264 1.062832,-12.735302 6.60613,-16.278289 29.286442,-15.065929 28.466582,-15.172624 -0.56531,-0.07357 -7.963898,20.860239 -8.663579,19.110046 z"
       sodipodi:nodetypes="zsssz" />
    <path
       id="path69737"
       style="fill:#89cff0;fill-opacity:1;stroke:#000000;stroke-width:2.07124;stroke-opacity:0"
       transform="scale(0.26458333)"
       d="m 501.38867,334.89844 c -0.009,-0.005 0.0208,0.0698 0.0508,0.14453 3.3e-4,-0.027 0.007,-0.0589 -0.004,-0.0762 -0.0254,-0.0417 -0.0408,-0.0649 -0.0469,-0.0684 z m 0.0508,0.14844 c -0.064,2.87559 -59.84361,59.35688 -52.79297,59.0996 6.33772,-0.23113 26.86655,20.51875 9.6504,67.16602 0.30153,0.0872 0.57448,0.36383 0.5625,0.85156 -8e-4,0.0317 -8e-4,0.0655 -0.002,0.0957 -1.8e-4,0.002 -9e-5,0.003 0,0.004 0.0798,0.0338 0.16352,0.0594 0.23242,0.10938 0.0347,0.0251 0.0495,0.0657 0.0703,0.10156 0.0906,-0.0414 0.19022,0.0847 0.28515,0.25195 0.16181,0.12559 0.27919,0.255 0.29297,0.36719 0.0895,0.0688 0.18894,0.12473 0.25781,0.2207 0.39316,0.1481 0.72408,0.41268 0.63477,0.38867 0.25393,0.14339 0.47708,0.32269 0.69336,0.51954 0.10843,0.15637 0.0676,0.12662 0.0898,0.16601 0.0904,0.0209 0.15351,0.0975 0.16797,0.25977 0.001,0.002 0.002,0.004 0.004,0.006 0.05,0.0199 0.0957,0.0391 0.1289,0.0547 0.0306,0.0144 0.0574,0.034 0.082,0.0566 -8e-4,-0.0184 -4.5e-4,-0.038 -0.002,-0.0586 -0.0117,-0.17356 -0.0452,-0.27256 -0.15039,-0.37695 0.2194,0.20126 0.3092,0.39045 0.31445,0.60156 0.008,0.006 0.0169,0.0117 0.0254,0.0176 0.0182,0.0202 0.0363,0.0405 0.0547,0.0605 0.0962,0.0378 0.0932,0.0493 0.041,0.0469 0.009,0.0101 0.0199,0.0192 0.0293,0.0293 0.0191,0.004 0.0142,0.005 0.0547,0.0137 0.007,0.009 0.0129,0.0197 0.0195,0.0293 0.0211,0.009 0.0381,0.0197 0.0508,0.0312 0.0292,0.0266 0.0368,0.0373 0.0508,0.0527 0.19661,-0.008 0.55882,0.0844 0.24804,0.25586 0.0496,0.049 0.11337,0.10654 0.13086,0.13672 0.0333,0.0399 0.0674,0.0863 0.11524,0.15039 7.1e-4,0.002 6e-4,0.004 0.002,0.006 0.003,0.006 0.0362,0.0182 0.0332,0.0234 0.0188,0.019 0.0376,0.0378 0.0566,0.0566 0.10846,0.062 0.16139,0.12856 0.19922,0.20117 0.0517,0.0518 0.10503,0.10214 0.1543,0.15625 0.0113,0.0123 0.0359,0.0592 0.0606,0.10547 0.18908,0.0595 0.22267,0.12384 0.38086,0.32226 0.008,0.0375 0.0158,0.0757 0.0234,0.11328 0.0666,0.0379 0.13403,0.0769 0.19922,0.11719 0.0656,0.0404 0.0228,0.0458 -0.043,0.041 l 0.006,0.006 c 0.0471,0.01 0.0904,0.0195 0.16211,0.0352 0.0183,0.0276 0.0354,0.0557 0.0527,0.084 0.0203,0.01 0.0384,0.0213 0.0508,0.0312 0.0355,0.0293 0.0698,0.0613 0.10156,0.0957 0.0447,0.0221 0.0836,0.0476 0.10352,0.0723 0.0278,0.0347 0.0505,0.0719 0.0703,0.11132 0.20059,0.0918 0.27524,0.14352 0.45508,0.35938 0.0453,0.0529 -0.0128,-0.0127 0.10742,0.0859 0.19336,0.15904 0.3805,0.36124 0.47461,0.56836 0.0127,0.0927 0.27315,0.32585 0.41015,0.47656 0.0572,0.0411 0.1162,0.0823 0.16993,0.12695 0.0197,0.0117 0.031,0.0171 0.0605,0.0371 0.10507,0.0711 0.20289,0.15349 0.30078,0.23438 0.01,0.008 0.0195,0.0367 0.01,0.0351 0.0181,0.0175 0.0345,0.0355 0.0508,0.0547 0.19005,0.0658 0.318,0.10842 0.44336,0.21875 0.37772,0.11139 0.75157,0.2712 1.02734,0.55859 0.25852,0.29972 0.0929,0.0931 -0.0137,0.0742 -0.0122,-0.002 -0.0264,-0.004 -0.0391,-0.006 0.12302,0.08 0.24602,0.16027 0.36914,0.24024 0.0244,0.008 0.0488,0.0169 0.0625,0.0234 -0.0162,-0.005 -0.0327,-0.0101 -0.0488,-0.0156 0.071,0.0461 0.14164,0.0929 0.21289,0.13867 0.0163,0.011 -0.0298,-0.0258 -0.0449,-0.0371 -0.0374,-0.028 -0.0722,-0.0595 -0.11328,-0.082 0.026,0.009 0.0522,0.0172 0.0781,0.0254 0.14979,0.0915 0.30862,0.16994 0.44922,0.27539 0.11679,0.0874 0.256,0.33955 0.31836,0.44727 0.005,0.008 0.0134,0.0311 0.008,0.0273 0.0598,0.0581 0.15312,0.1512 0.23047,0.23242 0.0116,0.005 0.0239,0.009 0.0352,0.0156 0.38665,0.21329 0.6067,0.45561 0.81836,0.81836 0.0726,0.0675 0.18546,0.17739 0.26172,0.28125 0.0687,0.003 0.13167,0.0223 0.18359,0.0684 0.10093,0.0896 0.18423,0.18935 0.25586,0.29297 0.0119,0.006 0.0234,0.013 0.0352,0.0195 0.0203,0.005 0.0412,0.0106 0.0566,0.0156 0.18385,0.0601 0.33505,0.18634 0.49219,0.30274 0.26191,0.0955 0.40509,0.20692 0.55664,0.40039 0.0848,0.0259 0.17259,0.048 0.2207,0.11718 0.13433,0.19329 0.21366,0.29507 0.29297,0.4004 0.004,6e-4 0.009,0.007 0.0137,0.008 0.16441,0.0316 0.26903,0.0743 0.3418,0.14453 0.0429,0.013 0.0863,0.026 0.1289,0.041 0.1047,0.0367 0.20542,0.0819 0.3086,0.12304 l -0.006,0.0117 c 0.14971,0.0599 0.27071,0.13224 0.36719,0.21094 5.63382,-4.99837 11.92512,-11.00834 18.81835,-18.13867 44.37336,-45.89962 10.14614,-118.37853 8.88672,-121.51953 z m -33.20703,135.35937 c -0.004,-0.003 -0.009,-0.005 -0.0137,-0.008 -0.0487,-0.0159 -0.0993,-0.0296 -0.0703,-0.0195 0.0276,0.01 0.0561,0.0178 0.084,0.0273 z m -9.48633,-8.12695 c 0.006,0.009 0.0125,0.0186 0.0176,0.0293 0.0192,0.01 0.0386,0.0208 0.0586,0.0312 -10e-4,-0.006 -0.002,-0.0117 -0.004,-0.0176 -0.006,-0.007 -0.0132,-0.0128 -0.0195,-0.0195 -0.0182,-0.008 -0.0354,-0.0162 -0.0527,-0.0234 z m 5.5918,5.01758 c 0.004,0.006 0.008,0.0118 0.0117,0.0176 0.002,7.6e-4 0.004,6.8e-4 0.006,0.002 -0.006,-0.008 -0.0118,-0.0142 -0.0176,-0.0195 z m 0.0723,0.0723 c 0.0148,0.0333 0.0271,0.0685 0.0391,0.10352 6.6e-4,0.002 6e-4,0.004 0.002,0.006 0.0267,0.0462 0.0512,0.0832 0.0625,0.10351 -0.0119,-0.007 -0.0248,-0.013 -0.0371,-0.0195 0.008,0.0276 0.0186,0.0546 0.0274,0.082 0.0514,0.0535 0.10009,0.10839 0.15625,0.1582 -0.006,-0.0617 -0.0203,-0.12522 -0.0488,-0.15039 -0.0284,-0.025 -0.0596,-0.0449 -0.0918,-0.0644 -0.005,-0.0183 -0.0235,-0.0727 -0.0664,-0.19727 -0.0136,-0.008 -0.0288,-0.0145 -0.043,-0.0215 z m -8.08008,0.94922 c -0.001,-0.007 -0.006,0.009 -0.01,0.0352 0.002,10e-4 0.006,0.005 0.01,0.01 -2.3e-4,-0.006 4e-4,-0.0427 0,-0.0449 z m 0,0.0449 c 1.7e-4,0.005 -1.1e-4,0.026 0,0.0332 0.005,0.0142 0.0112,0.0291 0.0176,0.043 0.007,-0.009 0.0141,-0.0186 0.0215,-0.0273 -0.0161,-0.0222 -0.0292,-0.038 -0.0391,-0.0488 z m 0,0.0332 c -0.004,-0.0102 -0.008,-0.0209 -0.0117,-0.0312 -0.005,0.0331 -0.0128,0.0826 -0.0254,0.14258 0.0128,-0.0169 0.0278,-0.0325 0.041,-0.0488 -1.5e-4,-0.0228 -0.004,-0.049 -0.004,-0.0625 z m 10.6875,1.25782 c 0.0499,0.0429 0.107,0.0934 0.17969,0.15234 0.051,0.0412 -0.0736,-0.12368 -0.13672,-0.14258 -0.0141,-0.004 -0.0287,-0.007 -0.043,-0.01 z m -3.06641,0.42187 c -0.0121,-10e-4 -0.007,0.0466 -0.0215,0.0742 0.0196,0.007 0.039,0.0146 0.0586,0.0215 -0.009,-0.0272 -0.0156,-0.0551 -0.0254,-0.082 -0.003,-0.009 -0.007,-0.0132 -0.0117,-0.0137 z m -0.0254,0.0859 c -0.004,0.008 -0.003,0.0109 -0.006,0.0195 0.0212,0.006 0.0427,0.0148 0.0625,0.0195 -0.0185,-0.0135 -0.0378,-0.026 -0.0566,-0.0391 z m 0.0566,0.0391 c 0.006,0.004 0.0116,0.009 0.0176,0.0137 -10e-4,-0.004 -1.8e-4,-0.008 -0.002,-0.0117 -0.007,-0.002 -0.008,3.3e-4 -0.0156,-0.002 z m -0.0918,0.0762 c 0.002,0.006 -0.01,0.0153 -0.006,0.0195 0.0611,0.0675 0.12711,0.13024 0.19726,0.18945 -0.007,8.3e-4 -0.0116,0.007 -0.0156,0.0195 0.0265,0.0155 0.004,0.004 0.0273,0.0176 -0.003,-0.0116 -0.005,-0.0236 -0.008,-0.0352 h -0.002 c -0.006,-0.0224 -0.0135,-0.0441 -0.0195,-0.0664 -0.0605,-0.0439 -0.11868,-0.0917 -0.17383,-0.14454 z m -1.32421,0.83204 c 8e-5,8.6e-4 -8e-5,0.003 0,0.004 0.003,-1.6e-4 0.007,2.8e-4 0.01,0 -0.003,-10e-4 -0.007,-0.003 -0.01,-0.004 z m 6.54492,0.2246 c -0.005,-0.002 -0.005,-7.7e-4 0.004,0.004 0.0357,0.0149 0.0724,0.0269 0.10938,0.0391 -0.003,-0.002 -0.005,-0.004 -0.008,-0.006 -0.0255,-0.008 -0.0894,-0.0323 -0.10547,-0.0371 z m 1.4375,1.26758 c 0.0383,0.0177 0.0768,0.0354 0.11523,0.0527 0.0359,0.0163 -0.0681,-0.049 -0.10742,-0.0527 -0.002,-1.8e-4 -0.006,1.9e-4 -0.008,0 z m -0.0156,0.0176 c 0.004,0.008 0.006,0.0155 0.01,0.0234 0.009,0.005 0.0178,0.0123 0.0273,0.0176 0.023,0.0126 -0.003,-0.0144 -0.0371,-0.041 z m 0.48242,0.37695 c -0.0103,2.4e-4 -0.0208,6e-4 -0.0312,0.002 0.0321,0.0523 0.0599,0.10461 0.0859,0.15625 0.031,8.3e-4 0.0621,0.003 0.0918,0.006 -0.031,-0.0632 -0.0665,-0.12069 -0.11328,-0.16407 -0.0111,-1.4e-4 -0.022,-2.5e-4 -0.0332,0 z m 0.0625,0.002 c 0.0565,0.0347 0.11293,0.07 0.17188,0.0996 0.0552,0.0276 -0.10252,-0.0656 -0.1543,-0.0996 -0.006,-4.5e-4 -0.0118,2.9e-4 -0.0176,0 z m 0.0391,0.2539 c 0.007,0.0153 0.0101,0.0271 0.0156,0.041 0.0419,0.0269 0.0837,0.0544 0.125,0.082 -0.018,-0.0407 -0.0371,-0.0795 -0.0547,-0.12109 -0.0289,5e-5 -0.0573,-4e-4 -0.0859,-0.002 z m 0.83593,0.34375 c -0.008,0 0.004,0.0126 0.0117,0.0156 0.015,0.008 0.0306,0.0135 0.0469,0.0195 -0.0105,-0.008 -0.0215,-0.016 -0.0312,-0.0234 -0.008,-0.004 -0.0198,-0.0151 -0.0274,-0.0117 z m -3.91015,0.60742 c 0.0631,0.0405 0.13442,0.0896 0.2168,0.14454 -0.0586,-0.052 -0.13641,-0.11253 -0.2168,-0.14454 z m -2.46485,0.004 c 0.009,0.0203 0.02,0.0402 0.0293,0.0606 -0.007,-0.009 -0.0265,-0.0444 -0.0293,-0.0606 z m 7.53126,0.46485 c 0.0253,0.0859 0.0502,0.18338 0.084,0.30273 6.9e-4,0.002 6e-4,0.005 0.002,0.008 0.0505,-0.15153 0.007,-0.24887 -0.0859,-0.31054 z m -0.28516,0.5332 c -0.0124,0.002 -0.0247,0.005 -0.0371,0.008 0.0332,0.027 0.0662,0.0543 0.0957,0.0859 0.003,0.004 0.006,0.009 0.01,0.0137 0.009,0.008 0.0168,0.0159 0.0254,0.0234 0.0252,-0.0147 0.0518,-0.0273 0.0742,-0.0449 -0.0188,-0.014 -0.0392,-0.0259 -0.0586,-0.0391 -0.0254,-0.0108 -0.0726,-0.0311 -0.10937,-0.0469 z m -8.53125,1.60937 c -0.0617,0.0161 -0.0972,0.0553 -0.11328,0.10938 0.03,0.003 0.0598,0.006 0.0898,0.01 0.0107,-0.0407 0.0206,-0.0806 0.0234,-0.11914 z m -1.15625,6.1875 c -0.003,8.5e-4 -0.0161,0.003 -0.0195,0.004 -0.002,0.006 -0.003,0.0112 -0.004,0.0176 0.008,-0.007 0.0174,-0.0154 0.0234,-0.0215 z m -10.1582,5.35938 c -0.0303,3.6e-4 -0.0577,-4.1e-4 -0.0781,0.002 -0.0418,0.0304 -0.0836,0.0611 -0.12695,0.0898 0.0683,-0.0306 0.13686,-0.0607 0.20508,-0.0918 z" />
    <path
       id="path83280"
       style="fill:#89cff0;fill-opacity:1;stroke:#000000;stroke-width:1.92076;stroke-opacity:0"
       transform="scale(0.26458333)"
       d="m 150.74609,355.11133 c -2.62695,-0.0283 -5.23961,0.0459 -7.83007,0.22656 -11.52561,0.9009 -24.50583,3.95052 -36.44922,8.80273 a 271.80542,271.80542 0 0 0 39.90039,192.31446 271.80542,271.80542 0 0 0 375.88867,80.4043 271.80542,271.80542 0 0 0 76.00781,-73.85352 c -16.83125,-21.37606 -38.28631,-37.96033 -63.59765,-36.28906 -15.4368,1.10717 -35.58488,11.82474 -48.8418,19.81054 -20.06204,-26.25033 -46.29474,-39.65086 -79.25195,-37.33007 -14.51536,1.03082 -28.52078,6.67088 -41.19532,13.82031 8.95225,-65.21133 -15.33039,-87.26279 44.1211,-127.3457 -19.38176,-10.02686 3.33863,0.60302 -38.84375,-35.86524 -21.50682,59.31796 -20.58927,46.48053 -60.45508,78.28125 -18.04286,-19.31153 -35.53518,-22.6516 -61.95703,-23.25391 -15.58132,-35.69899 -58.09181,-59.29471 -97.4961,-59.72265 z m 314.83399,119.0957 c 0.009,0.0203 0.02,0.0402 0.0293,0.0606 -0.007,-0.009 -0.0265,-0.0444 -0.0293,-0.0606 z" />
    <path
       id="rect80349"
       style="fill:#f0f8ff;fill-opacity:1;stroke:#000000;stroke-width:1.67303;stroke-opacity:0"
       d="m 369.5332,356.39258 c -16.7272,42.28589 -46.61573,81.47063 -78.05273,117.88672 a 85.548821,85.548821 0 0 0 -58.50391,-31.31446 85.548821,85.548821 0 0 0 -80.55468,-56.92578 85.548821,85.548821 0 0 0 -49.63477,16.33789 271.80542,271.80542 0 0 0 43.58008,154.07813 271.80542,271.80542 0 0 0 375.88867,80.4043 271.80542,271.80542 0 0 0 32.32617,-24.5625 85.548821,85.548821 0 0 0 -78.375,-52.13868 85.548821,85.548821 0 0 0 -38.77344,9.34571 85.548821,85.548821 0 0 0 -71.44921,-38.50977 85.548821,85.548821 0 0 0 -36.64063,8.26563 c 20.01861,-54.48526 45.66529,-117.25337 85.61914,-150.11719 z m 96.04688,117.81445 c 0.009,0.0203 0.02,0.0402 0.0293,0.0606 -0.007,-0.009 -0.0265,-0.0444 -0.0293,-0.0606 z"
       transform="scale(0.26458333)" />
    <g
       id="rect64250"
       transform="matrix(0.59457993,0.38700991,-0.38700991,0.59457993,213.88763,38.630202)"
       style="fill:#89cff0;fill-opacity:1">
      <path
         style="color:#000000;fill:#89cff0;stroke-width:0.964999;-inkscape-stroke:none;fill-opacity:1"
         d="m -104.4719,150.2701 h 42.994216 l -4.902248,7.87322 c -6.844101,0 -27.316657,-0.23452 -32.541892,-0.23452 1.010371,1.81493 -5.406016,-4.51326 -5.550076,-7.63871 z"
         id="path64365"
         sodipodi:nodetypes="cccccc" />
      <path
         style="color:#000000;fill:#89cff0;fill-opacity:1;-inkscape-stroke:none"
         d="m -104.95508,149.78711 v 0.48242 8.00977 h 43.958986 v -8.49219 z m 0.96485,0.96484 h 42.029293 v 6.5625 h -42.029293 z"
         id="path64362" />
    </g>
    <path
       id="path55238"
       style="fill:#f0f8ff;fill-opacity:1;stroke-width:0.684607;stroke-miterlimit:4;stroke-dasharray:none"
       d="M 148.91569,29.029067 C 146.31403,28.251442 123.83409,28.551669 108.87415,51.5352 102.04483,62.035175 93.542721,78.938693 91.694018,88.683853 l 26.938212,17.533987 c 8.16248,-5.6357 20.17697,-20.253011 27.01329,-30.748288 14.59216,-23.267509 5.87184,-45.662861 3.27017,-46.440485 z"
       sodipodi:nodetypes="zccccz" />
    <path
       id="path57313"
       style="fill:#89cff0;fill-opacity:1;stroke:#000000;stroke-width:0.187705px;stroke-linecap:butt;stroke-linejoin:miter;stroke-opacity:0"
       d="m 149.17655,29.164514 c -0.0924,-0.06588 -0.17968,-0.11103 -0.26099,-0.135319 -1.58303,-0.473157 -10.5256,-0.546764 -20.65565,4.645331 6.12029,7.413934 13.22511,14.058083 25.54325,16.626009 0.61998,-11.462494 -2.89479,-19.900457 -4.62661,-21.136018 z"
       sodipodi:nodetypes="ssccs" />
    <circle
       style="fill:#89cff0;fill-opacity:1;stroke-width:1.1351;stroke-miterlimit:4;stroke-dasharray:none"
       id="path61388"
       cx="141.04117"
       cy="-19.285383"
       r="11.705724"
       transform="rotate(33.059956)" />
    <circle
       style="fill:#f0f8ff;fill-opacity:1;stroke-width:1.45709;stroke-miterlimit:4;stroke-dasharray:none"
       id="path61514"
       cx="141.13756"
       cy="-19.408817"
       r="9.9321289"
       transform="rotate(33.059956)" />
    <path
       id="path70320"
       style="fill:#89cff0;stroke:#000000;stroke-width:0.725606;stroke-opacity:0;fill-opacity:1"
       d="M 111.56753,97.187475 C 99.994638,110.73461 95.860637,116.18492 94.028982,114.12323 c -2.205757,-2.48279 3.681655,-13.00227 8.350008,-22.837955 5.61393,-11.8279 13.17005,-15.752317 15.69747,-14.107226 2.52743,1.645091 1.99622,10.053371 -6.50893,20.009426 z"
       sodipodi:nodetypes="sssss" />
    <path
       id="path6955"
       style="fill:#89cff0;fill-opacity:1;stroke-width:1.22728"
       transform="scale(0.26458333)"
       d="m 569.16211,360.81445 c -11.47342,0.0947 -23.34691,1.1671 -27.73438,2.88867 -3.33282,1.30791 -3.32033,1.26245 -8.24218,28.11524 -2.12398,11.58818 -4.1956,15.28592 -10.09571,18.01758 -5.13513,2.37751 -8.38525,1.83042 -25.41796,-4.27344 -8.59136,-3.07877 -16.37219,-5.59766 -17.28907,-5.59766 -2.7767,0 -4.71172,1.33335 -8.47851,5.8418 -8.32853,9.96835 -15.9716,22.88254 -20.82618,35.18555 -2.57261,6.52051 -3.06611,9.83119 -1.81445,12.16992 0.28507,0.53267 4.14967,4.02332 8.83008,8.11914 0.31836,0.003 0.67,0.21418 0.75,0.65625 0.99874,0.8702 1.94045,1.69497 2.90039,2.5332 -0.0228,-0.0503 -0.0536,-0.095 -0.0996,-0.14062 0.0811,0.0744 0.14343,0.14778 0.19141,0.2207 0.42484,0.37048 0.78972,0.69996 1.27539,1.11328 3.948,3.3599 6.80694,5.88188 9.07812,8.02735 h 0.002 c 0.0385,0.0174 0.0716,0.0396 0.0957,0.0742 0.0144,0.0207 0.0181,0.0235 0.0312,0.043 0.10012,0.0949 0.24419,0.21923 0.3418,0.3125 0.0232,0.0183 0.045,0.0412 0.0684,0.0684 0.004,0.004 0.008,0.007 0.0117,0.0117 l 0.0137,0.0137 c 0.0769,0.0265 0.13589,0.0594 0.18164,0.10352 0.0429,0.013 0.0863,0.026 0.1289,0.041 0.1047,0.0367 0.20542,0.0819 0.3086,0.12304 l -0.006,0.0117 c 0.6134,0.24538 0.75932,0.692 0.58789,0.98047 4.37141,4.44593 5.39648,6.96302 5.39648,10.86523 0,6.75689 -1.6843,9.00332 -15.58008,20.79102 -16.34471,13.86516 -15.39793,12.79237 -15.04492,17.05273 0.6384,7.70873 10.7265,27.43133 20.31055,39.70508 5.58675,7.15465 8.39295,9.63464 10.89258,9.63086 1.02897,-0.002 8.92557,-2.5222 17.54883,-5.59961 17.31692,-6.1799 20.91709,-6.76865 25.88086,-4.23633 5.80301,2.96062 8.00643,7.21077 10.18359,19.63672 2.76567,15.78448 4.09806,22.16161 4.99219,23.89063 1.22676,2.37226 4.87266,3.52722 16.04687,5.08594 1.15472,0.16074 9.02851,0.18389 17.49609,0.0488 14.83458,-0.23546 22.53908,-1.14946 26.20118,-3.10937 1.51294,-0.80969 3.18367,-4.75166 3.86523,-9.1211 1.21516,-7.79074 4.67172,-25.76313 5.36133,-27.87695 1.05672,-3.23898 4.6159,-7.09047 7.95508,-8.60742 5.20641,-2.36523 8.52582,-1.81045 25.61718,4.28906 8.62322,3.07741 16.51993,5.59761 17.54883,5.59961 3.37939,0.006 9.8185,-6.95749 17.625,-19.05859 6.95157,-10.77578 13.7461,-26.14972 13.7461,-31.10547 0,-3.42671 0.22986,-3.1814 -15.30078,-16.3125 -13.62641,-11.52114 -15.49219,-13.96566 -15.49219,-20.29883 0,-6.21642 2.03208,-8.99049 13.9043,-18.99414 16.02172,-13.50032 16.88867,-14.39667 16.88867,-17.43359 0,-3.53828 -2.11564,-9.38112 -6.95313,-19.20899 -4.61733,-9.38056 -8.54528,-15.51663 -15.23047,-23.79297 -4.83099,-5.9808 -6.5002,-7.28491 -9.37695,-7.32422 -0.99934,-0.0136 -8.87088,2.49291 -17.49414,5.57032 -17.06823,6.09116 -20.32412,6.64025 -25.48242,4.29687 -3.34031,-1.51748 -6.89943,-5.36984 -7.95313,-8.60742 -0.41782,-1.28398 -2.04466,-9.37822 -3.61328,-17.98828 -1.56865,-8.61007 -3.31156,-16.35592 -3.87305,-17.21289 -1.49011,-2.27422 -3.53779,-2.98384 -12.34375,-4.27735 -4.89266,-0.71869 -11.63157,-1.01387 -18.51562,-0.95703 z m -1.38867,88.51953 c 7.99679,-0.22738 16.34503,1.99814 22.66601,6.35157 25.25004,17.39036 20.0176,56.70784 -8.83789,66.41015 -11.45707,3.85232 -22.94363,2.31684 -33.44531,-4.4707 -14.97702,-9.68013 -20.56231,-30.74164 -12.54687,-47.30859 4.37684,-9.04706 11.90973,-15.68305 21.70117,-19.1211 3.26592,-1.14674 6.82798,-1.75797 10.46289,-1.86133 z m -102.19336,24.87305 c 0.009,0.0203 0.02,0.0402 0.0293,0.0606 -0.007,-0.009 -0.0265,-0.0444 -0.0293,-0.0606 z" />
  </g>
</svg>
